<mxfile host="app.diagrams.net" agent="Mozilla/5.0 (Windows NT 10.0; Win64; x64) AppleWebKit/537.36 (KHTML, like Gecko) Chrome/131.0.0.0 Safari/537.36 Edg/131.0.0.0" version="24.8.4">
  <diagram name="第 1 页" id="hwgLJ18tU4Q0KoKcpJoi">
    <mxGraphModel dx="1427" dy="904" grid="0" gridSize="10" guides="1" tooltips="1" connect="1" arrows="1" fold="1" page="1" pageScale="1" pageWidth="827" pageHeight="1169" math="0" shadow="0">
      <root>
        <mxCell id="0" />
        <mxCell id="1" parent="0" />
        <mxCell id="E7EIukT1EkMj4igNdOg6-13" value="" style="shape=partialRectangle;whiteSpace=wrap;html=1;top=0;left=0;fillColor=none;" vertex="1" parent="1">
          <mxGeometry x="91" y="200.5" width="120" height="340" as="geometry" />
        </mxCell>
        <mxCell id="E7EIukT1EkMj4igNdOg6-14" value="" style="shape=partialRectangle;whiteSpace=wrap;html=1;bottom=0;right=0;fillColor=none;" vertex="1" parent="1">
          <mxGeometry x="606" y="200.5" width="120" height="341" as="geometry" />
        </mxCell>
        <mxCell id="E7EIukT1EkMj4igNdOg6-20" value="" style="endArrow=none;html=1;rounded=0;" edge="1" parent="1" source="E7EIukT1EkMj4igNdOg6-4">
          <mxGeometry relative="1" as="geometry">
            <mxPoint x="332" y="395" as="sourcePoint" />
            <mxPoint x="492" y="395" as="targetPoint" />
          </mxGeometry>
        </mxCell>
        <mxCell id="E7EIukT1EkMj4igNdOg6-21" value="" style="endArrow=none;html=1;rounded=0;" edge="1" parent="1" target="E7EIukT1EkMj4igNdOg6-4">
          <mxGeometry relative="1" as="geometry">
            <mxPoint x="332" y="395" as="sourcePoint" />
            <mxPoint x="492" y="395" as="targetPoint" />
          </mxGeometry>
        </mxCell>
        <mxCell id="E7EIukT1EkMj4igNdOg6-4" value="&lt;font style=&quot;font-size: 38px;&quot;&gt;IC&lt;/font&gt;" style="rounded=0;whiteSpace=wrap;html=1;shadow=0;fillColor=#f5f5f5;strokeColor=#666666;fontColor=#333333;" vertex="1" parent="1">
          <mxGeometry x="223" y="201" width="366" height="340" as="geometry" />
        </mxCell>
        <mxCell id="E7EIukT1EkMj4igNdOg6-22" value="" style="endArrow=open;endFill=1;endSize=12;html=1;rounded=0;" edge="1" parent="1">
          <mxGeometry width="160" relative="1" as="geometry">
            <mxPoint x="220" y="192" as="sourcePoint" />
            <mxPoint x="734" y="192" as="targetPoint" />
          </mxGeometry>
        </mxCell>
        <mxCell id="E7EIukT1EkMj4igNdOg6-23" value="" style="endArrow=open;endFill=1;endSize=12;html=1;rounded=0;" edge="1" parent="1">
          <mxGeometry width="160" relative="1" as="geometry">
            <mxPoint x="222" y="194" as="sourcePoint" />
            <mxPoint x="222" y="35" as="targetPoint" />
          </mxGeometry>
        </mxCell>
        <mxCell id="E7EIukT1EkMj4igNdOg6-24" value="" style="endArrow=open;endFill=1;endSize=12;html=1;rounded=0;" edge="1" parent="1">
          <mxGeometry width="160" relative="1" as="geometry">
            <mxPoint x="207" y="540" as="sourcePoint" />
            <mxPoint x="60" y="540" as="targetPoint" />
          </mxGeometry>
        </mxCell>
        <mxCell id="E7EIukT1EkMj4igNdOg6-26" value="" style="endArrow=open;endFill=1;endSize=12;html=1;rounded=0;" edge="1" parent="1">
          <mxGeometry width="160" relative="1" as="geometry">
            <mxPoint x="211" y="216" as="sourcePoint" />
            <mxPoint x="211" y="143" as="targetPoint" />
          </mxGeometry>
        </mxCell>
        <mxCell id="E7EIukT1EkMj4igNdOg6-27" value="" style="endArrow=open;endFill=1;endSize=12;html=1;rounded=0;" edge="1" parent="1">
          <mxGeometry width="160" relative="1" as="geometry">
            <mxPoint x="606" y="199.5" as="sourcePoint" />
            <mxPoint x="764" y="200" as="targetPoint" />
          </mxGeometry>
        </mxCell>
        <mxCell id="E7EIukT1EkMj4igNdOg6-28" value="" style="endArrow=open;endFill=1;endSize=12;html=1;rounded=0;" edge="1" parent="1">
          <mxGeometry width="160" relative="1" as="geometry">
            <mxPoint x="606" y="418" as="sourcePoint" />
            <mxPoint x="606" y="634" as="targetPoint" />
          </mxGeometry>
        </mxCell>
        <mxCell id="E7EIukT1EkMj4igNdOg6-29" value="" style="endArrow=open;endFill=1;endSize=12;html=1;rounded=0;" edge="1" parent="1">
          <mxGeometry width="160" relative="1" as="geometry">
            <mxPoint x="589" y="557" as="sourcePoint" />
            <mxPoint x="77" y="557" as="targetPoint" />
          </mxGeometry>
        </mxCell>
        <mxCell id="E7EIukT1EkMj4igNdOg6-30" value="" style="endArrow=open;endFill=1;endSize=12;html=1;rounded=0;" edge="1" parent="1">
          <mxGeometry width="160" relative="1" as="geometry">
            <mxPoint x="589" y="556" as="sourcePoint" />
            <mxPoint x="589" y="687" as="targetPoint" />
          </mxGeometry>
        </mxCell>
        <mxCell id="E7EIukT1EkMj4igNdOg6-31" value="&lt;font style=&quot;font-size: 24px;&quot;&gt;Partition 3&lt;/font&gt;" style="rounded=1;whiteSpace=wrap;html=1;strokeWidth=2;fillWeight=4;hachureGap=8;hachureAngle=45;sketch=1;fillColor=#dae8fc;strokeColor=#6c8ebf;" vertex="1" parent="1">
          <mxGeometry x="232" y="39" width="492" height="145" as="geometry" />
        </mxCell>
        <mxCell id="E7EIukT1EkMj4igNdOg6-32" value="&lt;font style=&quot;font-size: 24px;&quot;&gt;Partition 4&lt;/font&gt;" style="rounded=1;whiteSpace=wrap;html=1;strokeWidth=2;fillWeight=4;hachureGap=8;hachureAngle=45;fillColor=#dae8fc;sketch=1;strokeColor=#6c8ebf;" vertex="1" parent="1">
          <mxGeometry x="614" y="212" width="199" height="473" as="geometry" />
        </mxCell>
        <mxCell id="E7EIukT1EkMj4igNdOg6-33" value="&lt;font style=&quot;font-size: 24px;&quot;&gt;Partition 1&lt;/font&gt;" style="rounded=1;whiteSpace=wrap;html=1;strokeWidth=2;fillWeight=4;hachureGap=8;hachureAngle=45;fillColor=#dae8fc;sketch=1;strokeColor=#6c8ebf;" vertex="1" parent="1">
          <mxGeometry x="72" y="570" width="509" height="149" as="geometry" />
        </mxCell>
        <mxCell id="E7EIukT1EkMj4igNdOg6-34" value="&lt;font style=&quot;font-size: 24px;&quot;&gt;Partition 2&lt;/font&gt;" style="rounded=1;whiteSpace=wrap;html=1;strokeWidth=2;fillWeight=4;hachureGap=8;hachureAngle=45;fillColor=#dae8fc;sketch=1;strokeColor=#6c8ebf;" vertex="1" parent="1">
          <mxGeometry x="44" y="65" width="157" height="461" as="geometry" />
        </mxCell>
      </root>
    </mxGraphModel>
  </diagram>
</mxfile>
